<svg width="64" height="64" viewBox="0 0 64 64" fill="none" xmlns="http://www.w3.org/2000/svg" role="img" aria-label="DharmaMind">
  <!-- flat gold, no gradient (brand rule) -->
  <!-- outer ring -->
  <circle cx="32" cy="32" r="25.5" stroke="#d4a854" stroke-width="2.5"/>
  <!-- eight-fold radiating petals (yantra-inspired) -->
  <g stroke="#d4a854" stroke-width="1.6" stroke-linecap="round" opacity="0.9">
    <path d="M32 9.5 L32 17"/>
    <path d="M32 47 L32 54.5"/>
    <path d="M9.5 32 L17 32"/>
    <path d="M47 32 L54.5 32"/>
    <path d="M16.1 16.1 L21.4 21.4"/>
    <path d="M42.6 42.6 L47.9 47.9"/>
    <path d="M47.9 16.1 L42.6 21.4"/>
    <path d="M21.4 42.6 L16.1 47.9"/>
  </g>
  <!-- inner lotus -->
  <path d="M32 21 C26 27 26 35 32 41 C38 35 38 27 32 21 Z" fill="#d4a854" opacity="0.18"/>
  <path d="M32 21 C26 27 26 35 32 41 C38 35 38 27 32 21 Z" stroke="#d4a854" stroke-width="1.4"/>
  <!-- central bindu -->
  <circle cx="32" cy="32" r="3.4" fill="#d4a854"/>
</svg>
